<svg class="main-svg" xmlns="http://www.w3.org/2000/svg" xmlns:xlink="http://www.w3.org/1999/xlink" width="1100" height="600" style="" viewBox="0 0 1100 600"><rect x="0" y="0" width="1100" height="600" style="fill: rgb(255, 255, 255); fill-opacity: 1;"/><defs id="defs-9bece3"><g class="clips"><clipPath id="clip9bece3xyplot" class="plotclip"><rect width="940" height="495"/></clipPath><clipPath class="axesclip" id="clip9bece3x"><rect x="80" y="0" width="940" height="600"/></clipPath><clipPath class="axesclip" id="clip9bece3y"><rect x="0" y="52" width="1100" height="495"/></clipPath><clipPath class="axesclip" id="clip9bece3xy"><rect x="80" y="52" width="940" height="495"/></clipPath></g><g class="gradients"/><g class="patterns"/></defs><g class="bglayer"/><g class="layer-below"><g class="imagelayer"/><g class="shapelayer"/></g><g class="cartesianlayer"><g class="subplot xy"><g class="layer-subplot"><g class="shapelayer"/><g class="imagelayer"/></g><g class="minor-gridlayer"><g class="x"/><g class="y"/></g><g class="gridlayer"><g class="x"/><g class="y"><path class="ygrid crisp" transform="translate(0,452.71)" d="M80,0h940" style="stroke: rgb(220, 220, 220); stroke-opacity: 0.8; stroke-width: 1px;"/><path class="ygrid crisp" transform="translate(0,358.43)" d="M80,0h940" style="stroke: rgb(220, 220, 220); stroke-opacity: 0.8; stroke-width: 1px;"/><path class="ygrid crisp" transform="translate(0,264.14)" d="M80,0h940" style="stroke: rgb(220, 220, 220); stroke-opacity: 0.8; stroke-width: 1px;"/><path class="ygrid crisp" transform="translate(0,169.86)" d="M80,0h940" style="stroke: rgb(220, 220, 220); stroke-opacity: 0.8; stroke-width: 1px;"/><path class="ygrid crisp" transform="translate(0,75.57)" d="M80,0h940" style="stroke: rgb(220, 220, 220); stroke-opacity: 0.8; stroke-width: 1px;"/></g></g><g class="zerolinelayer"><path class="yzl zl crisp" transform="translate(0,547)" d="M80,0h940" style="stroke: rgb(235, 240, 248); stroke-opacity: 1; stroke-width: 2px;"/></g><g class="layer-between"><g class="shapelayer"/><g class="imagelayer"/></g><path class="xlines-below"/><path class="ylines-below"/><g class="overlines-below"/><g class="xaxislayer-below"/><g class="yaxislayer-below"/><g class="overaxes-below"/><g class="overplot"><g class="xy" transform="translate(80,52)" clip-path="url(#clip9bece3xyplot)"><g class="violinlayer mlayer"><g class="trace violins" style="opacity: 1;"><path class="violin" d="M152.75,259.29L59.46,259.29Q53.23,274.92 51.15,282.86C49.11,290.63 47.69,298.54 47,306.43C46.32,314.26 46.32,322.17 47,330C47.69,337.89 49.11,345.8 51.15,353.57Q53.23,361.51 59.46,377.14L152.75,377.14" style="vector-effect: none; stroke-width: 2px; stroke: rgb(0, 123, 255); stroke-opacity: 1; fill: rgb(0, 123, 255); fill-opacity: 0.3;"/><path class="meanline" d="M46.49000549316406,318.21H152.75" style="fill: none; vector-effect: none; stroke-width: 2px; stroke-dasharray: 4px, 2px; stroke: rgb(0, 123, 255); stroke-opacity: 1;"/></g><g class="trace violins" style="opacity: 1;"><path class="violin" d="M364.25,259.29L281.63,259.29Q274.42,272.29 271.49,278.93C268.64,285.39 266.15,291.95 264.21,298.57C262.31,305.05 260.86,311.63 259.91,318.21C258.97,324.73 258.5,331.31 258.5,337.86C258.5,344.41 258.97,350.99 259.91,357.5C260.86,364.08 262.31,370.66 264.21,377.14C266.15,383.76 268.64,390.33 271.49,396.79Q274.42,403.43 281.63,416.43L364.25,416.43" style="vector-effect: none; stroke-width: 2px; stroke: rgb(0, 123, 255); stroke-opacity: 1; fill: rgb(0, 123, 255); fill-opacity: 0.3;"/><path class="meanline" d="M258.5,337.86H364.25" style="fill: none; vector-effect: none; stroke-width: 2px; stroke-dasharray: 4px, 2px; stroke: rgb(0, 123, 255); stroke-opacity: 1;"/></g><g class="trace violins" style="opacity: 1;"><path class="violin" d="M575.75,337.86L514.06,337.86Q507.05,346.51 503.95,350.95C500.95,355.25 498.23,359.63 495.69,364.05C493.21,368.36 491.03,372.75 488.88,377.14C486.75,381.48 484.8,385.86 482.84,390.24C480.9,394.59 478.93,398.94 477.18,403.33C475.45,407.67 473.61,412.01 472.41,416.43C471.24,420.75 470.08,425.15 470,429.52C469.92,433.88 470.42,438.39 471.89,442.62Q473.46,447.14 479.5,455.71L575.75,455.71" style="vector-effect: none; stroke-width: 2px; stroke: rgb(0, 123, 255); stroke-opacity: 1; fill: rgb(0, 123, 255); fill-opacity: 0.3;"/><path class="meanline" d="M475.0889587402344,408.57H575.75" style="fill: none; vector-effect: none; stroke-width: 2px; stroke-dasharray: 4px, 2px; stroke: rgb(0, 123, 255); stroke-opacity: 1;"/></g><g class="trace violins" style="opacity: 1;"><path class="violin" d="M787.25,318.21L742.52,318.21Q736.47,325.15 733.66,328.69C730.92,332.14 728.36,335.65 725.87,339.17C723.43,342.63 721.17,346.14 718.86,349.64C716.56,353.12 714.34,356.63 712.06,360.12C709.78,363.62 707.46,367.1 705.18,370.6C702.91,374.09 700.56,377.55 698.41,381.07C696.29,384.54 694.18,388.01 692.35,391.55C690.56,395 688.91,398.49 687.52,402.02C686.17,405.47 685.02,408.98 684.1,412.5C683.2,415.97 682.47,419.47 682.04,422.98C681.61,426.46 681.32,429.97 681.5,433.45C681.68,436.95 682.09,440.51 683.12,443.93C684.19,447.5 685.81,451.05 687.94,454.4C690.27,458.06 693.4,461.54 696.8,464.88Q700.54,468.55 709.64,475.36L787.25,475.36" style="vector-effect: none; stroke-width: 2px; stroke: rgb(0, 123, 255); stroke-opacity: 1; fill: rgb(0, 123, 255); fill-opacity: 0.3;"/><path class="meanline" d="M685.2236328125,408.57H787.25" style="fill: none; vector-effect: none; stroke-width: 2px; stroke-dasharray: 4px, 2px; stroke: rgb(0, 123, 255); stroke-opacity: 1;"/></g><g class="trace violins" style="opacity: 1;"><path class="violin" d="M364.25,337.86L395.39,337.86Q398.62,324.77 400.15,318.21C401.68,311.67 403.07,305.11 404.59,298.57C406.11,292.02 407.57,285.46 409.27,278.93C410.98,272.37 412.75,265.8 414.83,259.29C416.93,252.71 419.24,246.14 421.82,239.64C424.44,233.04 427.36,226.5 430.45,220C433.58,213.41 437.06,206.89 440.5,200.36C443.96,193.79 447.74,187.29 451.17,180.71C454.57,174.19 458.19,167.7 461.02,161.07C463.78,154.61 466.53,148.07 468.02,141.43C469.47,134.97 470.42,128.3 470,121.79Q469.57,115.2 465.39,102.14L364.25,102.14" style="vector-effect: none; stroke-width: 2px; stroke: rgb(255, 123, 0); stroke-opacity: 1; fill: rgb(255, 123, 0); fill-opacity: 0.3;"/><path class="meanline" d="M456.3299255371094,170.89H364.25" style="fill: none; vector-effect: none; stroke-width: 2px; stroke-dasharray: 4px, 2px; stroke: rgb(255, 123, 0); stroke-opacity: 1;"/></g><g class="trace violins" style="opacity: 1;"><path class="violin" d="M575.75,337.86L651.84,337.86Q658.87,327.06 661.64,321.49C664.3,316.14 666.54,310.65 668.25,305.12C669.91,299.73 671.05,294.24 671.82,288.75C672.58,283.32 672.81,277.84 672.89,272.38C672.97,266.93 672.57,261.46 672.3,256.01C672.03,250.55 671.44,245.1 671.26,239.64C671.08,234.19 670.88,228.72 671.19,223.27C671.5,217.8 672.18,212.33 673.12,206.9C674.07,201.42 675.62,195.99 676.87,190.54C678.12,185.08 679.86,179.66 680.63,174.17C681.39,168.75 682.11,163.21 681.5,157.8Q680.87,152.29 676.8,141.43L575.75,141.43" style="vector-effect: none; stroke-width: 2px; stroke: rgb(255, 123, 0); stroke-opacity: 1; fill: rgb(255, 123, 0); fill-opacity: 0.3;"/><path class="meanline" d="M671.0323486328125,228.42H575.75" style="fill: none; vector-effect: none; stroke-width: 2px; stroke-dasharray: 4px, 2px; stroke: rgb(255, 123, 0); stroke-opacity: 1;"/></g><g class="trace violins" style="opacity: 1;"><path class="violin" d="M787.25,318.21L832.81,318.21Q841.75,311.66 846.21,308.39C850.67,305.12 855.26,301.89 859.57,298.57C863.75,295.34 867.96,292.12 871.71,288.75C875.25,285.57 878.71,282.34 881.54,278.93C884.16,275.77 886.56,272.5 888.27,269.11C889.87,265.94 891,262.61 891.67,259.29C892.32,256.06 892.34,252.73 892.29,249.46C892.24,246.18 891.68,242.91 891.35,239.64C891.02,236.37 890.49,233.1 890.3,229.82C890.11,226.55 890.06,223.27 890.23,220C890.4,216.72 890.9,213.45 891.32,210.18C891.74,206.9 892.46,203.64 892.74,200.36C893.02,197.09 893.34,193.79 893,190.54C892.66,187.24 891.93,183.9 890.67,180.71C889.34,177.34 887.31,174.05 885.06,170.89C882.64,167.49 879.57,164.27 876.47,161.07C873.21,157.71 869.53,154.49 865.92,151.25C862.23,147.94 858.34,144.7 854.54,141.43C850.73,138.15 846.87,134.9 843.1,131.61Q839.37,128.35 832.04,121.79L787.25,121.79" style="vector-effect: none; stroke-width: 2px; stroke: rgb(255, 123, 0); stroke-opacity: 1; fill: rgb(255, 123, 0); fill-opacity: 0.3;"/><path class="meanline" d="M890.22998046875,220H787.25" style="fill: none; vector-effect: none; stroke-width: 2px; stroke-dasharray: 4px, 2px; stroke: rgb(255, 123, 0); stroke-opacity: 1;"/></g></g><g class="scatterlayer mlayer"><g class="trace scatter tracea470da" style="stroke-miterlimit: 2; opacity: 1;"><g class="fills"/><g class="errorbars"/><g class="lines"/><g class="points"><path class="point" transform="translate(152.75,377.14)" d="M4,0A4,4 0 1,1 0,-4A4,4 0 0,1 4,0Z" style="opacity: 1; stroke-width: 1px; fill: rgb(0, 123, 255); fill-opacity: 0.7; stroke: rgb(0, 123, 255); stroke-opacity: 1;"/><path class="point" transform="translate(152.75,259.29)" d="M4,0A4,4 0 1,1 0,-4A4,4 0 0,1 4,0Z" style="opacity: 1; stroke-width: 1px; fill: rgb(0, 123, 255); fill-opacity: 0.7; stroke: rgb(0, 123, 255); stroke-opacity: 1;"/></g><g class="text"/></g><g class="trace scatter trace36754e" style="stroke-miterlimit: 2; opacity: 1;"><g class="fills"/><g class="errorbars"/><g class="lines"/><g class="points"><path class="point" transform="translate(364.25,416.43)" d="M4,0A4,4 0 1,1 0,-4A4,4 0 0,1 4,0Z" style="opacity: 1; stroke-width: 1px; fill: rgb(0, 123, 255); fill-opacity: 0.7; stroke: rgb(0, 123, 255); stroke-opacity: 1;"/><path class="point" transform="translate(364.25,337.86)" d="M4,0A4,4 0 1,1 0,-4A4,4 0 0,1 4,0Z" style="opacity: 1; stroke-width: 1px; fill: rgb(0, 123, 255); fill-opacity: 0.7; stroke: rgb(0, 123, 255); stroke-opacity: 1;"/><path class="point" transform="translate(364.25,259.29)" d="M4,0A4,4 0 1,1 0,-4A4,4 0 0,1 4,0Z" style="opacity: 1; stroke-width: 1px; fill: rgb(0, 123, 255); fill-opacity: 0.7; stroke: rgb(0, 123, 255); stroke-opacity: 1;"/></g><g class="text"/></g><g class="trace scatter trace35db22" style="stroke-miterlimit: 2; opacity: 1;"><g class="fills"/><g class="errorbars"/><g class="lines"/><g class="points"><path class="point" transform="translate(575.75,455.71)" d="M4,0A4,4 0 1,1 0,-4A4,4 0 0,1 4,0Z" style="opacity: 1; stroke-width: 1px; fill: rgb(0, 123, 255); fill-opacity: 0.7; stroke: rgb(0, 123, 255); stroke-opacity: 1;"/><path class="point" transform="translate(575.75,455.71)" d="M4,0A4,4 0 1,1 0,-4A4,4 0 0,1 4,0Z" style="opacity: 1; stroke-width: 1px; fill: rgb(0, 123, 255); fill-opacity: 0.7; stroke: rgb(0, 123, 255); stroke-opacity: 1;"/><path class="point" transform="translate(575.75,416.43)" d="M4,0A4,4 0 1,1 0,-4A4,4 0 0,1 4,0Z" style="opacity: 1; stroke-width: 1px; fill: rgb(0, 123, 255); fill-opacity: 0.7; stroke: rgb(0, 123, 255); stroke-opacity: 1;"/><path class="point" transform="translate(575.75,377.14)" d="M4,0A4,4 0 1,1 0,-4A4,4 0 0,1 4,0Z" style="opacity: 1; stroke-width: 1px; fill: rgb(0, 123, 255); fill-opacity: 0.7; stroke: rgb(0, 123, 255); stroke-opacity: 1;"/><path class="point" transform="translate(575.75,337.86)" d="M4,0A4,4 0 1,1 0,-4A4,4 0 0,1 4,0Z" style="opacity: 1; stroke-width: 1px; fill: rgb(0, 123, 255); fill-opacity: 0.7; stroke: rgb(0, 123, 255); stroke-opacity: 1;"/></g><g class="text"/></g><g class="trace scatter trace3a2abb" style="stroke-miterlimit: 2; opacity: 1;"><g class="fills"/><g class="errorbars"/><g class="lines"/><g class="points"><path class="point" transform="translate(787.25,475.36)" d="M4,0A4,4 0 1,1 0,-4A4,4 0 0,1 4,0Z" style="opacity: 1; stroke-width: 1px; fill: rgb(0, 123, 255); fill-opacity: 0.7; stroke: rgb(0, 123, 255); stroke-opacity: 1;"/><path class="point" transform="translate(787.25,475.36)" d="M4,0A4,4 0 1,1 0,-4A4,4 0 0,1 4,0Z" style="opacity: 1; stroke-width: 1px; fill: rgb(0, 123, 255); fill-opacity: 0.7; stroke: rgb(0, 123, 255); stroke-opacity: 1;"/><path class="point" transform="translate(787.25,455.71)" d="M4,0A4,4 0 1,1 0,-4A4,4 0 0,1 4,0Z" style="opacity: 1; stroke-width: 1px; fill: rgb(0, 123, 255); fill-opacity: 0.7; stroke: rgb(0, 123, 255); stroke-opacity: 1;"/><path class="point" transform="translate(787.25,455.71)" d="M4,0A4,4 0 1,1 0,-4A4,4 0 0,1 4,0Z" style="opacity: 1; stroke-width: 1px; fill: rgb(0, 123, 255); fill-opacity: 0.7; stroke: rgb(0, 123, 255); stroke-opacity: 1;"/><path class="point" transform="translate(787.25,455.71)" d="M4,0A4,4 0 1,1 0,-4A4,4 0 0,1 4,0Z" style="opacity: 1; stroke-width: 1px; fill: rgb(0, 123, 255); fill-opacity: 0.7; stroke: rgb(0, 123, 255); stroke-opacity: 1;"/><path class="point" transform="translate(787.25,436.07)" d="M4,0A4,4 0 1,1 0,-4A4,4 0 0,1 4,0Z" style="opacity: 1; stroke-width: 1px; fill: rgb(0, 123, 255); fill-opacity: 0.7; stroke: rgb(0, 123, 255); stroke-opacity: 1;"/><path class="point" transform="translate(787.25,416.43)" d="M4,0A4,4 0 1,1 0,-4A4,4 0 0,1 4,0Z" style="opacity: 1; stroke-width: 1px; fill: rgb(0, 123, 255); fill-opacity: 0.7; stroke: rgb(0, 123, 255); stroke-opacity: 1;"/><path class="point" transform="translate(787.25,416.43)" d="M4,0A4,4 0 1,1 0,-4A4,4 0 0,1 4,0Z" style="opacity: 1; stroke-width: 1px; fill: rgb(0, 123, 255); fill-opacity: 0.7; stroke: rgb(0, 123, 255); stroke-opacity: 1;"/><path class="point" transform="translate(787.25,396.79)" d="M4,0A4,4 0 1,1 0,-4A4,4 0 0,1 4,0Z" style="opacity: 1; stroke-width: 1px; fill: rgb(0, 123, 255); fill-opacity: 0.7; stroke: rgb(0, 123, 255); stroke-opacity: 1;"/><path class="point" transform="translate(787.25,396.79)" d="M4,0A4,4 0 1,1 0,-4A4,4 0 0,1 4,0Z" style="opacity: 1; stroke-width: 1px; fill: rgb(0, 123, 255); fill-opacity: 0.7; stroke: rgb(0, 123, 255); stroke-opacity: 1;"/><path class="point" transform="translate(787.25,377.14)" d="M4,0A4,4 0 1,1 0,-4A4,4 0 0,1 4,0Z" style="opacity: 1; stroke-width: 1px; fill: rgb(0, 123, 255); fill-opacity: 0.7; stroke: rgb(0, 123, 255); stroke-opacity: 1;"/><path class="point" transform="translate(787.25,377.14)" d="M4,0A4,4 0 1,1 0,-4A4,4 0 0,1 4,0Z" style="opacity: 1; stroke-width: 1px; fill: rgb(0, 123, 255); fill-opacity: 0.7; stroke: rgb(0, 123, 255); stroke-opacity: 1;"/><path class="point" transform="translate(787.25,337.86)" d="M4,0A4,4 0 1,1 0,-4A4,4 0 0,1 4,0Z" style="opacity: 1; stroke-width: 1px; fill: rgb(0, 123, 255); fill-opacity: 0.7; stroke: rgb(0, 123, 255); stroke-opacity: 1;"/><path class="point" transform="translate(787.25,337.86)" d="M4,0A4,4 0 1,1 0,-4A4,4 0 0,1 4,0Z" style="opacity: 1; stroke-width: 1px; fill: rgb(0, 123, 255); fill-opacity: 0.7; stroke: rgb(0, 123, 255); stroke-opacity: 1;"/><path class="point" transform="translate(787.25,318.21)" d="M4,0A4,4 0 1,1 0,-4A4,4 0 0,1 4,0Z" style="opacity: 1; stroke-width: 1px; fill: rgb(0, 123, 255); fill-opacity: 0.7; stroke: rgb(0, 123, 255); stroke-opacity: 1;"/></g><g class="text"/></g><g class="trace scatter trace706aad" style="stroke-miterlimit: 2; opacity: 1;"><g class="fills"/><g class="errorbars"/><g class="lines"/><g class="points"><path class="point" transform="translate(364.25,337.86)" d="M4,0A4,4 0 1,1 0,-4A4,4 0 0,1 4,0Z" style="opacity: 1; stroke-width: 1px; fill: rgb(255, 123, 0); fill-opacity: 0.7; stroke: rgb(255, 123, 0); stroke-opacity: 1;"/><path class="point" transform="translate(364.25,259.29)" d="M4,0A4,4 0 1,1 0,-4A4,4 0 0,1 4,0Z" style="opacity: 1; stroke-width: 1px; fill: rgb(255, 123, 0); fill-opacity: 0.7; stroke: rgb(255, 123, 0); stroke-opacity: 1;"/><path class="point" transform="translate(364.25,180.71)" d="M4,0A4,4 0 1,1 0,-4A4,4 0 0,1 4,0Z" style="opacity: 1; stroke-width: 1px; fill: rgb(255, 123, 0); fill-opacity: 0.7; stroke: rgb(255, 123, 0); stroke-opacity: 1;"/><path class="point" transform="translate(364.25,180.71)" d="M4,0A4,4 0 1,1 0,-4A4,4 0 0,1 4,0Z" style="opacity: 1; stroke-width: 1px; fill: rgb(255, 123, 0); fill-opacity: 0.7; stroke: rgb(255, 123, 0); stroke-opacity: 1;"/><path class="point" transform="translate(364.25,102.14)" d="M4,0A4,4 0 1,1 0,-4A4,4 0 0,1 4,0Z" style="opacity: 1; stroke-width: 1px; fill: rgb(255, 123, 0); fill-opacity: 0.7; stroke: rgb(255, 123, 0); stroke-opacity: 1;"/><path class="point" transform="translate(364.25,102.14)" d="M4,0A4,4 0 1,1 0,-4A4,4 0 0,1 4,0Z" style="opacity: 1; stroke-width: 1px; fill: rgb(255, 123, 0); fill-opacity: 0.7; stroke: rgb(255, 123, 0); stroke-opacity: 1;"/><path class="point" transform="translate(364.25,102.14)" d="M4,0A4,4 0 1,1 0,-4A4,4 0 0,1 4,0Z" style="opacity: 1; stroke-width: 1px; fill: rgb(255, 123, 0); fill-opacity: 0.7; stroke: rgb(255, 123, 0); stroke-opacity: 1;"/><path class="point" transform="translate(364.25,102.14)" d="M4,0A4,4 0 1,1 0,-4A4,4 0 0,1 4,0Z" style="opacity: 1; stroke-width: 1px; fill: rgb(255, 123, 0); fill-opacity: 0.7; stroke: rgb(255, 123, 0); stroke-opacity: 1;"/></g><g class="text"/></g><g class="trace scatter trace93ed65" style="stroke-miterlimit: 2; opacity: 1;"><g class="fills"/><g class="errorbars"/><g class="lines"/><g class="points"><path class="point" transform="translate(575.75,337.86)" d="M4,0A4,4 0 1,1 0,-4A4,4 0 0,1 4,0Z" style="opacity: 1; stroke-width: 1px; fill: rgb(255, 123, 0); fill-opacity: 0.7; stroke: rgb(255, 123, 0); stroke-opacity: 1;"/><path class="point" transform="translate(575.75,337.86)" d="M4,0A4,4 0 1,1 0,-4A4,4 0 0,1 4,0Z" style="opacity: 1; stroke-width: 1px; fill: rgb(255, 123, 0); fill-opacity: 0.7; stroke: rgb(255, 123, 0); stroke-opacity: 1;"/><path class="point" transform="translate(575.75,337.86)" d="M4,0A4,4 0 1,1 0,-4A4,4 0 0,1 4,0Z" style="opacity: 1; stroke-width: 1px; fill: rgb(255, 123, 0); fill-opacity: 0.7; stroke: rgb(255, 123, 0); stroke-opacity: 1;"/><path class="point" transform="translate(575.75,298.57)" d="M4,0A4,4 0 1,1 0,-4A4,4 0 0,1 4,0Z" style="opacity: 1; stroke-width: 1px; fill: rgb(255, 123, 0); fill-opacity: 0.7; stroke: rgb(255, 123, 0); stroke-opacity: 1;"/><path class="point" transform="translate(575.75,259.29)" d="M4,0A4,4 0 1,1 0,-4A4,4 0 0,1 4,0Z" style="opacity: 1; stroke-width: 1px; fill: rgb(255, 123, 0); fill-opacity: 0.7; stroke: rgb(255, 123, 0); stroke-opacity: 1;"/><path class="point" transform="translate(575.75,259.29)" d="M4,0A4,4 0 1,1 0,-4A4,4 0 0,1 4,0Z" style="opacity: 1; stroke-width: 1px; fill: rgb(255, 123, 0); fill-opacity: 0.7; stroke: rgb(255, 123, 0); stroke-opacity: 1;"/><path class="point" transform="translate(575.75,259.29)" d="M4,0A4,4 0 1,1 0,-4A4,4 0 0,1 4,0Z" style="opacity: 1; stroke-width: 1px; fill: rgb(255, 123, 0); fill-opacity: 0.7; stroke: rgb(255, 123, 0); stroke-opacity: 1;"/><path class="point" transform="translate(575.75,220)" d="M4,0A4,4 0 1,1 0,-4A4,4 0 0,1 4,0Z" style="opacity: 1; stroke-width: 1px; fill: rgb(255, 123, 0); fill-opacity: 0.7; stroke: rgb(255, 123, 0); stroke-opacity: 1;"/><path class="point" transform="translate(575.75,180.71)" d="M4,0A4,4 0 1,1 0,-4A4,4 0 0,1 4,0Z" style="opacity: 1; stroke-width: 1px; fill: rgb(255, 123, 0); fill-opacity: 0.7; stroke: rgb(255, 123, 0); stroke-opacity: 1;"/><path class="point" transform="translate(575.75,141.43)" d="M4,0A4,4 0 1,1 0,-4A4,4 0 0,1 4,0Z" style="opacity: 1; stroke-width: 1px; fill: rgb(255, 123, 0); fill-opacity: 0.7; stroke: rgb(255, 123, 0); stroke-opacity: 1;"/><path class="point" transform="translate(575.75,141.43)" d="M4,0A4,4 0 1,1 0,-4A4,4 0 0,1 4,0Z" style="opacity: 1; stroke-width: 1px; fill: rgb(255, 123, 0); fill-opacity: 0.7; stroke: rgb(255, 123, 0); stroke-opacity: 1;"/><path class="point" transform="translate(575.75,141.43)" d="M4,0A4,4 0 1,1 0,-4A4,4 0 0,1 4,0Z" style="opacity: 1; stroke-width: 1px; fill: rgb(255, 123, 0); fill-opacity: 0.7; stroke: rgb(255, 123, 0); stroke-opacity: 1;"/><path class="point" transform="translate(575.75,141.43)" d="M4,0A4,4 0 1,1 0,-4A4,4 0 0,1 4,0Z" style="opacity: 1; stroke-width: 1px; fill: rgb(255, 123, 0); fill-opacity: 0.7; stroke: rgb(255, 123, 0); stroke-opacity: 1;"/><path class="point" transform="translate(575.75,141.43)" d="M4,0A4,4 0 1,1 0,-4A4,4 0 0,1 4,0Z" style="opacity: 1; stroke-width: 1px; fill: rgb(255, 123, 0); fill-opacity: 0.7; stroke: rgb(255, 123, 0); stroke-opacity: 1;"/></g><g class="text"/></g><g class="trace scatter trace7832fc" style="stroke-miterlimit: 2; opacity: 1;"><g class="fills"/><g class="errorbars"/><g class="lines"/><g class="points"><path class="point" transform="translate(787.25,318.21)" d="M4,0A4,4 0 1,1 0,-4A4,4 0 0,1 4,0Z" style="opacity: 1; stroke-width: 1px; fill: rgb(255, 123, 0); fill-opacity: 0.7; stroke: rgb(255, 123, 0); stroke-opacity: 1;"/><path class="point" transform="translate(787.25,298.57)" d="M4,0A4,4 0 1,1 0,-4A4,4 0 0,1 4,0Z" style="opacity: 1; stroke-width: 1px; fill: rgb(255, 123, 0); fill-opacity: 0.7; stroke: rgb(255, 123, 0); stroke-opacity: 1;"/><path class="point" transform="translate(787.25,298.57)" d="M4,0A4,4 0 1,1 0,-4A4,4 0 0,1 4,0Z" style="opacity: 1; stroke-width: 1px; fill: rgb(255, 123, 0); fill-opacity: 0.7; stroke: rgb(255, 123, 0); stroke-opacity: 1;"/><path class="point" transform="translate(787.25,298.57)" d="M4,0A4,4 0 1,1 0,-4A4,4 0 0,1 4,0Z" style="opacity: 1; stroke-width: 1px; fill: rgb(255, 123, 0); fill-opacity: 0.7; stroke: rgb(255, 123, 0); stroke-opacity: 1;"/><path class="point" transform="translate(787.25,278.93)" d="M4,0A4,4 0 1,1 0,-4A4,4 0 0,1 4,0Z" style="opacity: 1; stroke-width: 1px; fill: rgb(255, 123, 0); fill-opacity: 0.7; stroke: rgb(255, 123, 0); stroke-opacity: 1;"/><path class="point" transform="translate(787.25,278.93)" d="M4,0A4,4 0 1,1 0,-4A4,4 0 0,1 4,0Z" style="opacity: 1; stroke-width: 1px; fill: rgb(255, 123, 0); fill-opacity: 0.7; stroke: rgb(255, 123, 0); stroke-opacity: 1;"/><path class="point" transform="translate(787.25,259.29)" d="M4,0A4,4 0 1,1 0,-4A4,4 0 0,1 4,0Z" style="opacity: 1; stroke-width: 1px; fill: rgb(255, 123, 0); fill-opacity: 0.7; stroke: rgb(255, 123, 0); stroke-opacity: 1;"/><path class="point" transform="translate(787.25,259.29)" d="M4,0A4,4 0 1,1 0,-4A4,4 0 0,1 4,0Z" style="opacity: 1; stroke-width: 1px; fill: rgb(255, 123, 0); fill-opacity: 0.7; stroke: rgb(255, 123, 0); stroke-opacity: 1;"/><path class="point" transform="translate(787.25,259.29)" d="M4,0A4,4 0 1,1 0,-4A4,4 0 0,1 4,0Z" style="opacity: 1; stroke-width: 1px; fill: rgb(255, 123, 0); fill-opacity: 0.7; stroke: rgb(255, 123, 0); stroke-opacity: 1;"/><path class="point" transform="translate(787.25,259.29)" d="M4,0A4,4 0 1,1 0,-4A4,4 0 0,1 4,0Z" style="opacity: 1; stroke-width: 1px; fill: rgb(255, 123, 0); fill-opacity: 0.7; stroke: rgb(255, 123, 0); stroke-opacity: 1;"/><path class="point" transform="translate(787.25,259.29)" d="M4,0A4,4 0 1,1 0,-4A4,4 0 0,1 4,0Z" style="opacity: 1; stroke-width: 1px; fill: rgb(255, 123, 0); fill-opacity: 0.7; stroke: rgb(255, 123, 0); stroke-opacity: 1;"/><path class="point" transform="translate(787.25,259.29)" d="M4,0A4,4 0 1,1 0,-4A4,4 0 0,1 4,0Z" style="opacity: 1; stroke-width: 1px; fill: rgb(255, 123, 0); fill-opacity: 0.7; stroke: rgb(255, 123, 0); stroke-opacity: 1;"/><path class="point" transform="translate(787.25,239.64)" d="M4,0A4,4 0 1,1 0,-4A4,4 0 0,1 4,0Z" style="opacity: 1; stroke-width: 1px; fill: rgb(255, 123, 0); fill-opacity: 0.7; stroke: rgb(255, 123, 0); stroke-opacity: 1;"/><path class="point" transform="translate(787.25,220)" d="M4,0A4,4 0 1,1 0,-4A4,4 0 0,1 4,0Z" style="opacity: 1; stroke-width: 1px; fill: rgb(255, 123, 0); fill-opacity: 0.7; stroke: rgb(255, 123, 0); stroke-opacity: 1;"/><path class="point" transform="translate(787.25,220)" d="M4,0A4,4 0 1,1 0,-4A4,4 0 0,1 4,0Z" style="opacity: 1; stroke-width: 1px; fill: rgb(255, 123, 0); fill-opacity: 0.7; stroke: rgb(255, 123, 0); stroke-opacity: 1;"/><path class="point" transform="translate(787.25,220)" d="M4,0A4,4 0 1,1 0,-4A4,4 0 0,1 4,0Z" style="opacity: 1; stroke-width: 1px; fill: rgb(255, 123, 0); fill-opacity: 0.7; stroke: rgb(255, 123, 0); stroke-opacity: 1;"/><path class="point" transform="translate(787.25,220)" d="M4,0A4,4 0 1,1 0,-4A4,4 0 0,1 4,0Z" style="opacity: 1; stroke-width: 1px; fill: rgb(255, 123, 0); fill-opacity: 0.7; stroke: rgb(255, 123, 0); stroke-opacity: 1;"/><path class="point" transform="translate(787.25,200.36)" d="M4,0A4,4 0 1,1 0,-4A4,4 0 0,1 4,0Z" style="opacity: 1; stroke-width: 1px; fill: rgb(255, 123, 0); fill-opacity: 0.7; stroke: rgb(255, 123, 0); stroke-opacity: 1;"/><path class="point" transform="translate(787.25,180.71)" d="M4,0A4,4 0 1,1 0,-4A4,4 0 0,1 4,0Z" style="opacity: 1; stroke-width: 1px; fill: rgb(255, 123, 0); fill-opacity: 0.7; stroke: rgb(255, 123, 0); stroke-opacity: 1;"/><path class="point" transform="translate(787.25,180.71)" d="M4,0A4,4 0 1,1 0,-4A4,4 0 0,1 4,0Z" style="opacity: 1; stroke-width: 1px; fill: rgb(255, 123, 0); fill-opacity: 0.7; stroke: rgb(255, 123, 0); stroke-opacity: 1;"/><path class="point" transform="translate(787.25,180.71)" d="M4,0A4,4 0 1,1 0,-4A4,4 0 0,1 4,0Z" style="opacity: 1; stroke-width: 1px; fill: rgb(255, 123, 0); fill-opacity: 0.7; stroke: rgb(255, 123, 0); stroke-opacity: 1;"/><path class="point" transform="translate(787.25,180.71)" d="M4,0A4,4 0 1,1 0,-4A4,4 0 0,1 4,0Z" style="opacity: 1; stroke-width: 1px; fill: rgb(255, 123, 0); fill-opacity: 0.7; stroke: rgb(255, 123, 0); stroke-opacity: 1;"/><path class="point" transform="translate(787.25,180.71)" d="M4,0A4,4 0 1,1 0,-4A4,4 0 0,1 4,0Z" style="opacity: 1; stroke-width: 1px; fill: rgb(255, 123, 0); fill-opacity: 0.7; stroke: rgb(255, 123, 0); stroke-opacity: 1;"/><path class="point" transform="translate(787.25,180.71)" d="M4,0A4,4 0 1,1 0,-4A4,4 0 0,1 4,0Z" style="opacity: 1; stroke-width: 1px; fill: rgb(255, 123, 0); fill-opacity: 0.7; stroke: rgb(255, 123, 0); stroke-opacity: 1;"/><path class="point" transform="translate(787.25,180.71)" d="M4,0A4,4 0 1,1 0,-4A4,4 0 0,1 4,0Z" style="opacity: 1; stroke-width: 1px; fill: rgb(255, 123, 0); fill-opacity: 0.7; stroke: rgb(255, 123, 0); stroke-opacity: 1;"/><path class="point" transform="translate(787.25,161.07)" d="M4,0A4,4 0 1,1 0,-4A4,4 0 0,1 4,0Z" style="opacity: 1; stroke-width: 1px; fill: rgb(255, 123, 0); fill-opacity: 0.7; stroke: rgb(255, 123, 0); stroke-opacity: 1;"/><path class="point" transform="translate(787.25,141.43)" d="M4,0A4,4 0 1,1 0,-4A4,4 0 0,1 4,0Z" style="opacity: 1; stroke-width: 1px; fill: rgb(255, 123, 0); fill-opacity: 0.7; stroke: rgb(255, 123, 0); stroke-opacity: 1;"/><path class="point" transform="translate(787.25,141.43)" d="M4,0A4,4 0 1,1 0,-4A4,4 0 0,1 4,0Z" style="opacity: 1; stroke-width: 1px; fill: rgb(255, 123, 0); fill-opacity: 0.7; stroke: rgb(255, 123, 0); stroke-opacity: 1;"/><path class="point" transform="translate(787.25,121.79)" d="M4,0A4,4 0 1,1 0,-4A4,4 0 0,1 4,0Z" style="opacity: 1; stroke-width: 1px; fill: rgb(255, 123, 0); fill-opacity: 0.7; stroke: rgb(255, 123, 0); stroke-opacity: 1;"/><path class="point" transform="translate(787.25,121.79)" d="M4,0A4,4 0 1,1 0,-4A4,4 0 0,1 4,0Z" style="opacity: 1; stroke-width: 1px; fill: rgb(255, 123, 0); fill-opacity: 0.7; stroke: rgb(255, 123, 0); stroke-opacity: 1;"/></g><g class="text"/></g></g></g></g><path class="xlines-above crisp" d="M0,0" style="fill: none;"/><path class="ylines-above crisp" d="M0,0" style="fill: none;"/><g class="overlines-above"/><g class="xaxislayer-above"><g class="xtick"><text text-anchor="middle" x="0" y="560" transform="translate(232.75,0)" style="font-family: Arial, sans-serif; font-size: 12px; fill: rgb(42, 63, 95); fill-opacity: 1; white-space: pre; opacity: 1;">chronos-t5-mini</text></g><g class="xtick"><text text-anchor="middle" x="0" y="560" transform="translate(444.25,0)" style="font-family: Arial, sans-serif; font-size: 12px; fill: rgb(42, 63, 95); fill-opacity: 1; white-space: pre; opacity: 1;">chronos-t5-small</text></g><g class="xtick"><text text-anchor="middle" x="0" y="560" transform="translate(655.75,0)" style="font-family: Arial, sans-serif; font-size: 12px; fill: rgb(42, 63, 95); fill-opacity: 1; white-space: pre; opacity: 1;">chronos-t5-base</text></g><g class="xtick"><text text-anchor="middle" x="0" y="560" transform="translate(867.25,0)" style="font-family: Arial, sans-serif; font-size: 12px; fill: rgb(42, 63, 95); fill-opacity: 1; white-space: pre; opacity: 1;">chronos-t5-large</text></g></g><g class="yaxislayer-above"><g class="ytick"><text text-anchor="end" x="79" y="4.55" transform="translate(0,547)" style="font-family: Arial, sans-serif; font-size: 13px; fill: rgb(42, 63, 95); fill-opacity: 1; white-space: pre; opacity: 1;">0%</text></g><g class="ytick"><text text-anchor="end" x="79" y="4.55" style="font-family: Arial, sans-serif; font-size: 13px; fill: rgb(42, 63, 95); fill-opacity: 1; white-space: pre; opacity: 1;" transform="translate(0,452.71)">20%</text></g><g class="ytick"><text text-anchor="end" x="79" y="4.55" style="font-family: Arial, sans-serif; font-size: 13px; fill: rgb(42, 63, 95); fill-opacity: 1; white-space: pre; opacity: 1;" transform="translate(0,358.43)">40%</text></g><g class="ytick"><text text-anchor="end" x="79" y="4.55" style="font-family: Arial, sans-serif; font-size: 13px; fill: rgb(42, 63, 95); fill-opacity: 1; white-space: pre; opacity: 1;" transform="translate(0,264.14)">60%</text></g><g class="ytick"><text text-anchor="end" x="79" y="4.55" style="font-family: Arial, sans-serif; font-size: 13px; fill: rgb(42, 63, 95); fill-opacity: 1; white-space: pre; opacity: 1;" transform="translate(0,169.86)">80%</text></g><g class="ytick"><text text-anchor="end" x="79" y="4.55" style="font-family: Arial, sans-serif; font-size: 13px; fill: rgb(42, 63, 95); fill-opacity: 1; white-space: pre; opacity: 1;" transform="translate(0,75.57)">100%</text></g></g><g class="overaxes-above"/></g></g><g class="polarlayer"/><g class="smithlayer"/><g class="ternarylayer"/><g class="geolayer"/><g class="funnelarealayer"/><g class="pielayer"/><g class="iciclelayer"/><g class="treemaplayer"/><g class="sunburstlayer"/><g class="glimages"/><defs id="topdefs-9bece3"><g class="clips"/><clipPath id="legend9bece3"><rect width="256" height="30" x="0" y="0"/></clipPath></defs><g class="layer-above"><g class="imagelayer"/><g class="shapelayer"/></g><g class="infolayer"><g class="legend" pointer-events="all" transform="translate(422,12.099999999999994)"><rect class="bg" shape-rendering="crispEdges" width="256" height="30" x="0" y="0" style="stroke: rgb(68, 68, 68); stroke-opacity: 1; fill: rgb(255, 255, 255); fill-opacity: 1; stroke-width: 0px;"/><g class="scrollbox" transform="" clip-path="url(#legend9bece3)"><g class="groups" transform=""><g class="traces" transform="translate(0,14.950000000000001)" style="opacity: 1;"><text class="legendtext" text-anchor="start" x="40" y="5.07" style="font-family: Arial, sans-serif; font-size: 13px; fill: rgb(42, 63, 95); fill-opacity: 1; white-space: pre;">Current Token</text><g class="layers" style="opacity: 1;"><g class="legendfill"/><g class="legendlines"/><g class="legendsymbols"><g class="legendpoints"><path class="scatterpts" transform="translate(20,0)" d="M4,0A4,4 0 1,1 0,-4A4,4 0 0,1 4,0Z" style="opacity: 1; stroke-width: 1px; fill: rgb(0, 123, 255); fill-opacity: 0.7; stroke: rgb(0, 123, 255); stroke-opacity: 1;"/></g></g></g><rect class="legendtoggle" x="0" y="-9.950000000000001" width="124.15625" height="19.900000000000002" style="fill: rgb(0, 0, 0); fill-opacity: 0;"/></g></g><g class="groups" transform="translate(126.65625,0)"><g class="traces" transform="translate(0,14.950000000000001)" style="opacity: 1;"><text class="legendtext" text-anchor="start" x="40" y="5.07" style="font-family: Arial, sans-serif; font-size: 13px; fill: rgb(42, 63, 95); fill-opacity: 1; white-space: pre;">Token to Right</text><g class="layers" style="opacity: 1;"><g class="legendfill"/><g class="legendlines"/><g class="legendsymbols"><g class="legendpoints"><path class="scatterpts" transform="translate(20,0)" d="M4,0A4,4 0 1,1 0,-4A4,4 0 0,1 4,0Z" style="opacity: 1; stroke-width: 1px; fill: rgb(255, 123, 0); fill-opacity: 0.7; stroke: rgb(255, 123, 0); stroke-opacity: 1;"/></g></g></g><rect class="legendtoggle" x="0" y="-9.950000000000001" width="126" height="19.900000000000002" style="fill: rgb(0, 0, 0); fill-opacity: 0;"/></g></g></g><rect class="scrollbar" rx="20" ry="3" width="0" height="0" x="0" y="0" style="fill: rgb(128, 139, 164); fill-opacity: 1;"/></g><g class="g-gtitle"/><g class="g-xtitle"><text class="xtitle" x="550" y="587.3" text-anchor="middle" style="opacity: 1; font-family: Arial, sans-serif; font-size: 14px; fill: rgb(42, 63, 95); fill-opacity: 1; white-space: pre;"><tspan style="font-weight:bold">Model</tspan></text></g><g class="g-ytitle"><text class="ytitle" transform="rotate(-90,26.35,299.5)" x="26.35" y="299.5" text-anchor="middle" style="opacity: 1; font-family: Arial, sans-serif; font-size: 14px; fill: rgb(42, 63, 95); fill-opacity: 1; white-space: pre;"><tspan style="font-weight:bold">Relative Layer Position</tspan></text></g></g></svg>